Coordinates
version=1
nRows=21
nColumns=19
inDegrees=yes

Units are S.I. units (second, meters, Newtons, ...)
If the header above contains a line with 'inDegrees', this indicates whether rotational values are in degrees (yes) or radians (no).

endheader
time	pelvis_tilt	pelvis_list	pelvis_rotation	pelvis_tx	pelvis_ty	pelvis_tz	hip_flexion_r	hip_adduction_r	hip_rotation_r	knee_angle_r	knee_angle_r_beta	ankle_angle_r	hip_flexion_l	hip_adduction_l	hip_rotation_l	knee_angle_l	knee_angle_l_beta	ankle_angle_l
     12.21333333	     -5.53221865	     -1.06895839	     -3.94405945	      2.39308305	      0.90778488	      1.05466559	     33.71146943	      5.01371102	     -4.94406612	     25.42104248	      0.44368089	     -4.34156306	    -20.02054172	     -2.57009688	     -5.52187091	     97.85969465	      1.70797388	     -8.62653483
     12.22000000	     -5.18506865	     -1.68011049	     -4.24717376	      2.39282565	      0.90258339	      1.05462235	     32.78169298	      5.72378024	     -4.69150297	     27.92743933	      0.48742577	     -2.34249219	    -18.90800361	     -3.37642671	     -5.69343575	    102.10309974	      1.78203527	     -8.32366269
     12.22666667	     -5.16211408	     -2.12173836	     -4.48157454	      2.39225712	      0.89702009	      1.05460453	     32.19945958	      6.27642547	     -4.39323882	     30.58136164	      0.53374545	      0.16970576	    -17.20303663	     -4.11706036	     -5.69575889	    106.29704543	      1.85523343	     -7.83557338
     12.23333333	     -6.48140519	     -1.76320567	     -4.55337223	      2.39086852	      0.89035539	      1.05463727	     33.22531241	      6.08943667	     -3.86710059	     33.51783436	      0.58499657	      2.77372472	    -13.40655310	     -4.10120776	     -5.13866801	    110.70903706	      1.93223721	     -7.33574540
     12.24000000	     -7.06423562	     -1.96066763	     -4.77614492	      2.38941418	      0.88484655	      1.05492581	     33.07432129	      6.53372421	     -3.37447804	     35.90435820	      0.62664927	      5.75737669	    -10.42942273	     -4.80097435	     -4.93104811	    114.72963512	      2.00240988	     -6.77540495
     12.24666667	     -6.77063561	     -2.45255541	     -5.17989637	      2.38790986	      0.88097813	      1.05542001	     31.62958807	      7.32366937	     -2.77501815	     37.78524173	      0.65947688	      9.04336614	     -8.35626071	     -5.84150249	     -4.94404144	    118.23482783	      2.06358704	     -6.28945141
     12.25333333	     -5.91160774	     -2.45099526	     -6.70934601	      2.38984033	      0.87912360	      1.05681389	     29.07522920	      7.96867830	     -1.22330251	     39.34708526	      0.68673619	     12.39077976	     -7.51944787	     -5.90349407	     -6.19152889	    119.86344198	      2.09201172	     -6.26765091
     12.26000000	     -2.39751415	     -2.63094136	     -9.44983931	      2.39268265	      0.88126957	      1.05906709	     23.08938851	      8.74895345	      1.78374852	     40.23849144	      0.70229416	     15.53296276	    -10.17239889	     -5.49669789	     -9.00908178	    119.93678254	      2.09329175	     -6.12795387
     12.26666667	      0.66780725	     -2.78802090	    -11.41988422	      2.39495440	      0.88412563	      1.06059658	     17.24940257	      8.72858696	      4.16603428	     40.42806213	      0.70560279	     18.38878516	    -11.75010268	     -5.16237602	    -10.98655542	    119.95800546	      2.09366216	     -6.12294438
     12.27333333	      3.39156347	     -2.67112311	    -12.86457457	      2.39610935	      0.88763684	      1.06166800	     11.66682674	      7.94663465	      6.19034107	     40.04218294	      0.69886793	     20.65753916	    -12.34145434	     -4.67560728	    -12.36141409	    119.96701355	      2.09381938	     -6.07319086
     12.28000000	      5.63227142	     -2.11801627	    -13.86844892	      2.39605896	      0.89153108	      1.06240801	      6.64180968	      6.44734211	      7.78411721	     39.19647782	      0.68410759	     22.33436006	    -11.76932938	     -3.95134235	    -13.22339109	    119.97145507	      2.09389690	     -5.92962917
     12.28666667	      7.28859434	     -1.14887251	    -14.44421948	      2.39493405	      0.89557508	      1.06283899	      2.31014388	      4.43429493	      8.85126320	     37.91529039	      0.66174665	     23.28137769	    -10.01603062	     -3.06491645	    -13.63417087	    119.97357425	      2.09393389	     -5.67204601
     12.29333333	      8.11567308	      0.31804013	    -14.63155245	      2.39278900	      0.89934325	      1.06304564	     -0.97066878	      2.05598014	      9.38107252	     36.41601651	      0.63557939	     23.51300467	     -6.83833743	     -1.94942187	    -13.69283137	    119.97421254	      2.09394503	     -5.37623289
     12.30000000	      8.26731709	      1.85801073	    -14.31922974	      2.38983344	      0.90282465	      1.06291234	     -3.59730152	     -0.16602686	      9.34832415	     34.58076551	      0.60354822	     22.95341982	     -2.67455777	     -1.00897912	    -13.40922439	    119.97355213	      2.09393350	     -4.93912715
     12.30666667	      7.46928486	      3.52873325	    -13.48066866	      2.38625068	      0.90554727	      1.06233031	     -5.18137731	     -2.17575964	      8.71926085	     32.71155260	      0.57092430	     21.68591647	      2.75773338	     -0.08865190	    -12.79536280	    119.97156987	      2.09389890	     -4.49663220
     12.31333333	      5.52434278	      5.07458674	    -12.04613321	      2.38230984	      0.90720085	      1.06112994	     -5.58408820	     -3.66171881	      7.57783924	     30.90907760	      0.53946517	     19.72453308	      9.52988974	      0.67490787	    -11.81174698	    119.96790535	      2.09383495	     -4.09597801
     12.32000000	      3.00481186	      5.89869336	     -9.93493250	      2.37822233	      0.90812852	      1.05916652	     -5.69661544	     -4.20992752	      5.82105938	     28.87814168	      0.50401865	     17.01146189	     16.79086507	      0.95453672	    -10.23042245	    119.96116092	      2.09371723	     -3.76904648
     12.32666667	     -0.97763183	      6.21534166	     -7.37621834	      2.37406248	      0.90708977	      1.05655144	     -4.07424831	     -4.01101260	      3.78469514	     27.34683376	      0.47729229	     13.89580350	     25.64135295	      1.12390573	     -8.22004628	    119.94813371	      2.09348986	     -3.56845491
     12.33333333	     -4.99332913	      5.23743621	     -4.55144167	      2.37004081	      0.90519988	      1.05336206	     -2.59316637	     -2.60072570	      1.39047774	     25.62939979	      0.44731741	     10.24941943	     34.32621430	      0.79226590	     -5.42077525	    119.91228321	      2.09286416	     -3.41334118
     12.34000000	     -8.54555123	      3.28398576	     -1.95420810	      2.36672080	      0.90292762	      1.05020669	     -1.60130723	     -0.36718486	     -1.04864992	     23.69926182	      0.41363015	      6.20270424	     42.27085627	      0.26214597	     -2.19378380	    119.62453811	      2.08784206	     -3.24166960
     12.34666667	     -9.61419890	      3.25914166	     -0.90433635	      2.36753989	      0.90626003	      1.04919605	     -3.64337068	     -0.35438207	     -2.20563195	     20.72348449	      0.36169304	      1.61142484	     45.76751579	      1.07483901	     -1.73171407	    116.81779222	      2.03885510	     -3.12323138
